<svg width="27" height="23" viewBox="0 0 27 23" fill="none" xmlns="http://www.w3.org/2000/svg">
<path d="M11.273 1.28815C11.8912 0.237285 13.6781 0.237285 14.2963 1.28815L17.2409 6.29414L23.8256 7.09669C25.208 7.26432 25.76 8.69132 24.7597 9.50958L23.6283 10.4347C22.2279 9.774 20.6254 9.47682 19.0235 9.5808C17.4217 9.68478 15.8927 10.1852 14.6301 11.0188C13.3675 11.8524 12.4282 12.9816 11.9311 14.2634C11.4339 15.5452 11.4014 16.9219 11.8375 18.2193L6.8961 20.3985C5.65982 20.9433 4.21375 20.0632 4.44852 18.9076L5.57365 13.406L0.809612 9.50854C-0.190649 8.69132 0.361306 7.26537 1.74369 7.09669L8.32843 6.29414L11.273 1.28815ZM26.5205 16.3732C26.5205 14.8449 25.7968 13.3792 24.5088 12.2985C23.2208 11.2178 21.4738 10.6107 19.6522 10.6107C17.8307 10.6107 16.0837 11.2178 14.7957 12.2985C13.5076 13.3792 12.784 14.8449 12.784 16.3732C12.784 17.9015 13.5076 19.3672 14.7957 20.4478C16.0837 21.5285 17.8307 22.1356 19.6522 22.1356C21.4738 22.1356 23.2208 21.5285 24.5088 20.4478C25.7968 19.3672 26.5205 17.9015 26.5205 16.3732ZM20.2766 16.897L20.2791 19.5195C20.2791 19.6584 20.2133 19.7917 20.0962 19.8899C19.9791 19.9881 19.8203 20.0433 19.6547 20.0433C19.4891 20.0433 19.3303 19.9881 19.2132 19.8899C19.0961 19.7917 19.0304 19.6584 19.0304 19.5195V16.897H15.9022C15.7366 16.897 15.5778 16.8418 15.4607 16.7436C15.3436 16.6454 15.2778 16.5121 15.2778 16.3732C15.2778 16.2342 15.3436 16.101 15.4607 16.0028C15.5778 15.9045 15.7366 15.8493 15.9022 15.8493H19.0304L19.0291 13.229C19.0291 13.09 19.0949 12.9568 19.212 12.8586C19.3291 12.7603 19.4879 12.7051 19.6535 12.7051C19.8191 12.7051 19.9779 12.7603 20.095 12.8586C20.2121 12.9568 20.2779 13.09 20.2779 13.229V15.8483H23.396C23.5616 15.8483 23.7205 15.9035 23.8375 16.0017C23.9546 16.1 24.0204 16.2332 24.0204 16.3721C24.0204 16.5111 23.9546 16.6443 23.8375 16.7426C23.7205 16.8408 23.5616 16.896 23.396 16.896H20.2791L20.2766 16.897Z" fill="black"/>
</svg>
