<svg width="27" height="19" viewBox="0 0 27 19" fill="none" xmlns="http://www.w3.org/2000/svg">
<path d="M13.4968 0.5C7.53734 0.5 2.44796 3.61 0.385986 8C2.44796 12.39 7.53734 15.5 13.4968 15.5C13.9259 15.5 14.355 15.5 14.784 15.45C14.7227 15.1359 14.6908 14.8183 14.6887 14.5C14.6887 14.14 14.7364 13.78 14.8079 13.42C14.3788 13.46 13.9378 13.5 13.4968 13.5C9.01528 13.5 4.95093 11.36 2.98431 8C3.94766 6.34969 5.44355 4.95925 7.30191 3.98675C9.16028 3.01424 11.3066 2.49868 13.4968 2.49868C15.687 2.49868 17.8333 3.01424 19.6917 3.98675C21.55 4.95925 23.0459 6.34969 24.0093 8C23.8663 8.24 23.6994 8.45 23.5444 8.68C24.3311 8.84 25.082 9.11 25.7614 9.5C26.0832 9 26.3692 8.5 26.6076 8C24.5456 3.61 19.4563 0.5 13.4968 0.5ZM13.4968 5C12.5485 5 11.639 5.31607 10.9684 5.87868C10.2978 6.44129 9.92112 7.20435 9.92112 8C9.92112 8.79565 10.2978 9.55871 10.9684 10.1213C11.639 10.6839 12.5485 11 13.4968 11C14.4451 11 15.3546 10.6839 16.0252 10.1213C16.6958 9.55871 17.0725 8.79565 17.0725 8C17.0725 7.20435 16.6958 6.44129 16.0252 5.87868C15.3546 5.31607 14.4451 5 13.4968 5ZM20.6481 10.5V13.5H17.0725V15.5H20.6481V18.5H23.0319V15.5H26.6076V13.5H23.0319V10.5H20.6481Z" fill="black"/>
</svg>
